<?xml version="1.0" encoding="UTF-8"?>
<svg version="1.1" xmlns="http://www.w3.org/2000/svg" width="512" height="512">
<path d="M0 0 C1.42447161 -0.00763173 1.42447161 -0.00763173 2.87772042 -0.01541764 C6.07416422 -0.03116973 9.27058537 -0.03967458 12.46705627 -0.04811096 C14.75341944 -0.0576474 17.03978115 -0.06753847 19.32614136 -0.07775879 C26.84908835 -0.10917526 34.3720465 -0.12941762 41.89503479 -0.14796448 C43.81491459 -0.15291046 43.81491459 -0.15291046 45.77357984 -0.15795636 C57.84588497 -0.18874431 69.91819061 -0.21561317 81.99052334 -0.23237514 C84.78673753 -0.23632445 87.58295163 -0.24032746 90.37916565 -0.24440002 C91.42160509 -0.24591257 91.42160509 -0.24591257 92.48510391 -0.24745566 C103.72867197 -0.26444173 114.97201913 -0.30552711 126.21547949 -0.35642301 C137.76888913 -0.40828981 149.32215032 -0.43684764 160.8756786 -0.44457203 C167.35846394 -0.44952378 173.840857 -0.4645599 180.3235302 -0.50431633 C186.42789193 -0.54125776 192.53163856 -0.54956719 198.63609123 -0.5363102 C200.87092045 -0.53636402 203.10577743 -0.54661047 205.34050369 -0.56806183 C229.35803462 -0.78619311 229.35803462 -0.78619311 239.0669775 8.23261356 C241.78823455 11.09654957 243.6149131 13.6331818 245.14894104 17.28562927 C247.05568363 20.53415368 248.3548755 21.22789637 251.58644104 23.03562927 C260.38397452 28.02431808 264.20844124 33.65977839 267.02239811 43.30995047 C268.56164473 50.59107056 268.38210915 57.87240842 268.33764648 65.28482056 C268.34154548 67.09558034 268.34719069 68.90633705 268.35441738 70.71708661 C268.3691036 75.66240861 268.35903163 80.60740996 268.34468067 85.55272138 C268.333536 90.89767125 268.34552491 96.24257743 268.35452271 101.58752441 C268.36843254 112.04538574 268.36091604 122.50312605 268.34584712 132.96098157 C268.32896206 145.14418435 268.33220036 157.32735719 268.3359412 169.51056806 C268.34181546 191.24900807 268.32766423 212.98739009 268.30299377 234.72581482 C268.27906543 255.81275098 268.27199354 276.89960971 268.28248596 297.98655701 C268.29389748 320.96172485 268.29582301 343.93685691 268.28138787 366.91202432 C268.27986205 369.36212909 268.2783417 371.81223386 268.27682686 374.26233864 C268.27606904 375.46777697 268.27531123 376.67321531 268.27453045 377.91518208 C268.26979013 386.4050811 268.27163721 394.89496412 268.27589226 403.3848629 C268.28082083 413.73049045 268.27482572 424.07604482 268.25499796 434.42165562 C268.24513282 439.69883935 268.24001258 444.97591169 268.24789047 450.25310135 C268.25495733 455.08587846 268.24811906 459.918431 268.23028684 464.75117854 C268.22624896 466.49725084 268.22723112 468.24334368 268.23380571 469.98940828 C268.27881411 483.06387412 267.56911221 493.49286489 258.58644104 503.72312927 C252.31986762 509.27759208 246.88962164 512.27491108 238.45829773 512.30043697 C237.36046432 512.30612822 236.2626309 512.31181946 235.13152981 512.31768316 C233.9257179 512.31886304 232.71990599 512.32004291 231.47755432 512.32125854 C230.19628442 512.32634636 228.91501451 512.33143418 227.59491825 512.33667618 C224.03563062 512.35057401 220.4763532 512.35816353 216.91704535 512.36464918 C213.86471388 512.37102358 210.81239916 512.38109323 207.76007813 512.39120983 C197.70345766 512.42452339 187.64682699 512.44605403 177.59016943 512.46440968 C174.97080934 512.46920587 172.35144966 512.47418905 169.73209 512.47921491 C153.46038882 512.51018871 137.18868406 512.53686945 120.91696167 512.55363369 C117.14842218 512.55758309 113.37988275 512.56158609 109.61134338 512.56565857 C108.67470946 512.56666693 107.73807554 512.56767529 106.77305877 512.56871421 C91.60763448 512.5857131 76.44237359 512.62681397 61.27702904 512.67768156 C45.70075403 512.72949687 30.12456297 512.75858115 14.54820251 512.76583058 C5.80523614 512.77048802 -2.93746271 512.7851887 -11.68034363 512.82557487 C-19.12800261 512.85993653 -26.57534577 512.87378949 -34.02307945 512.86115073 C-37.82019973 512.855338 -41.61665259 512.8590884 -45.41367149 512.88932037 C-49.5391696 512.92189818 -53.66321841 512.90748328 -57.7888031 512.8888855 C-59.57075231 512.91407789 -59.57075231 512.91407789 -61.38870049 512.93977922 C-70.57889324 512.83657303 -78.52871651 510.39589027 -85.4308939 504.08876699 C-88.11172779 501.20935659 -89.94764061 498.67472057 -91.47605896 495.03562927 C-93.38280155 491.78710487 -94.68199342 491.09336218 -97.91355896 489.28562927 C-106.83053468 484.22921009 -110.49907614 478.57957711 -113.34951603 468.81869328 C-114.72714804 462.6280295 -114.71183019 456.51294244 -114.6647644 450.20089722 C-114.66866624 448.73392022 -114.67431371 447.26694702 -114.6815353 445.79998261 C-114.6961812 441.80482559 -114.68617418 437.81006709 -114.67179859 433.81492341 C-114.66063037 429.49243632 -114.67265059 425.1700025 -114.68164062 420.84751892 C-114.69553511 412.39426534 -114.68804517 403.9411617 -114.67296504 395.48791533 C-114.65605899 385.63409351 -114.65932097 375.78030857 -114.66305912 365.92647672 C-114.66893068 348.33986521 -114.65479339 330.75332541 -114.63011169 313.16673279 C-114.60618936 296.11917941 -114.59910978 279.07172181 -114.60960388 262.02415466 C-114.62102429 243.43864683 -114.62292956 224.85318324 -114.60850579 206.26767594 C-114.60698002 204.28430657 -114.60545966 202.3009372 -114.60394478 200.31756783 C-114.60318696 199.34183207 -114.60242915 198.36609631 -114.60164837 197.3607928 C-114.59691451 190.49938654 -114.59875058 183.63800011 -114.60301018 176.77659416 C-114.60794698 168.41059188 -114.60190723 160.04467999 -114.58211588 151.67869835 C-114.57227374 147.41389184 -114.56710538 143.14922269 -114.57500839 138.88440895 C-114.58210574 134.97425197 -114.57516674 131.06437117 -114.55740476 127.15425039 C-114.55338641 125.74596089 -114.55431579 124.33764589 -114.56092363 122.92936616 C-114.63210872 106.32678064 -111.16356552 93.84397117 -99.40997314 81.8427124 C-98.69298752 81.13068161 -97.97600189 80.41865082 -97.23728943 79.68504333 C-96.07982964 78.51225075 -96.07982964 78.51225075 -94.89898682 77.31576538 C-92.36973813 74.75893592 -89.82613026 72.21701406 -87.28074646 69.67625427 C-85.50159246 67.88931536 -83.72288272 66.10193403 -81.94459534 64.31413269 C-78.22423318 60.57889191 -74.49638971 56.85127204 -70.76316833 53.12889099 C-66.47060596 48.84840348 -62.19672389 44.54989254 -57.931548 40.24213052 C-53.79950007 36.07037678 -49.65065001 31.91567929 -45.4951973 27.76725006 C-43.74196301 26.01299439 -41.99340254 24.25405384 -40.24979782 22.49022675 C-18.0095263 0.02378024 -18.0095263 0.02378024 0 0 Z " fill="#D2E9FB" transform="translate(179.16355895996094,-0.1606292724609375)"/>
<path d="M0 0 C20.15560323 16.77547102 20.15560323 16.77547102 23.515625 26.09375 C24.35216355 27.93413481 25.18891175 29.77442664 26.02880859 31.61328125 C30.45488796 41.39601558 33.88443296 51.27066293 34.515625 62.09375 C34.58007812 63.12371094 34.64453125 64.15367187 34.7109375 65.21484375 C35.42891363 87.44817134 28.6514089 107.89706801 14.515625 125.09375 C13.90203125 125.86976563 13.2884375 126.64578125 12.65625 127.4453125 C-2.16200331 145.26395594 -23.87600927 154.6714251 -46.484375 157.09375 C-62.94282569 158.12364102 -77.59867583 154.85508565 -92.484375 148.09375 C-93.28617188 147.74183594 -94.08796875 147.38992187 -94.9140625 147.02734375 C-114.17921472 138.06942278 -127.93083351 118.4076915 -135.26708984 99.02587891 C-142.60438505 78.15440784 -142.13940786 53.89171704 -132.69799805 33.78808594 C-131.06533788 30.49557402 -129.29785361 27.28938863 -127.484375 24.09375 C-126.9275 23.08441406 -126.370625 22.07507813 -125.796875 21.03515625 C-114.58580548 2.03562738 -94.1654913 -10.23238917 -73.171875 -15.78125 C-47.80166508 -20.55782842 -20.61478146 -16.04743467 0 0 Z " fill="#AAC274" transform="translate(299.484375,91.90625)"/>
<path d="M0 0 C7.83777488 3.21908611 13.65193183 7.81686925 17.22359043 15.70095617 C20.37119353 25.2861621 20.56098929 34.15757081 20.50120544 44.12419128 C20.50510444 45.93495107 20.51074965 47.74570778 20.51797634 49.55645734 C20.53266256 54.50177934 20.52259059 59.44678069 20.50823963 64.39209211 C20.49709496 69.73704198 20.50908387 75.08194815 20.51808167 80.42689514 C20.5319915 90.88475646 20.524475 101.34249677 20.50940608 111.8003523 C20.49252102 123.98355508 20.49575932 136.16672792 20.49950016 148.34993879 C20.50537442 170.08837879 20.49122319 191.82676082 20.46655273 213.56518555 C20.44262439 234.65212171 20.4355525 255.73898043 20.44604492 276.82592773 C20.45745644 299.80109558 20.45938197 322.77622764 20.44494683 345.75139505 C20.44342101 348.20149982 20.44190066 350.65160459 20.44038582 353.10170937 C20.439628 354.3071477 20.43887019 355.51258604 20.43808941 356.75455281 C20.43334909 365.24445183 20.43519617 373.73433485 20.43945122 382.22423363 C20.44437979 392.56986118 20.43838468 402.91541555 20.41855692 413.26102635 C20.40869178 418.53821007 20.40357154 423.81528242 20.41144943 429.09247208 C20.41851629 433.92524918 20.41167802 438.75780172 20.3938458 443.59054927 C20.38980792 445.33662157 20.39079008 447.08271441 20.39736467 448.828779 C20.44237307 461.90324484 19.73267117 472.33223562 10.75 482.5625 C4.48342658 488.1169628 -0.9468194 491.1142818 -9.37814331 491.1398077 C-10.47597672 491.14549894 -11.57381014 491.15119018 -12.70491123 491.15705389 C-13.91072314 491.15823376 -15.11653505 491.15941364 -16.35888672 491.16062927 C-18.28079157 491.168261 -18.28079157 491.168261 -20.24152279 491.17604691 C-23.80081042 491.18994474 -27.36008784 491.19753426 -30.91939569 491.2040199 C-33.97172716 491.21039431 -37.02404188 491.22046396 -40.07636291 491.23058056 C-50.13298338 491.26389412 -60.18961405 491.28542476 -70.24627161 491.30378041 C-72.8656317 491.3085766 -75.48499138 491.31355978 -78.10435104 491.31858563 C-94.37605222 491.34955944 -110.64775698 491.37624018 -126.91947937 491.39300442 C-130.68801886 491.39695381 -134.45655829 491.40095682 -138.22509766 491.4050293 C-139.63004854 491.40654184 -139.63004854 491.40654184 -141.06338227 491.40808494 C-156.22880656 491.42508382 -171.39406745 491.4661847 -186.559412 491.51705229 C-202.13568701 491.5688676 -217.71187807 491.59795187 -233.28823853 491.6052013 C-242.0312049 491.60985875 -250.77390375 491.62455942 -259.51678467 491.6649456 C-266.96444365 491.69930726 -274.41178681 491.71316022 -281.85952049 491.70052146 C-285.65664077 491.69470872 -289.45309363 491.69845913 -293.25011253 491.7286911 C-297.37561064 491.76126891 -301.49965945 491.74685401 -305.62524414 491.72825623 C-306.81321028 491.74505115 -308.00117641 491.76184608 -309.22514153 491.77914995 C-318.42609542 491.67582291 -326.33409473 489.21421536 -333.27392673 482.94620413 C-337.02232245 478.99843827 -338.8912241 475.01841275 -341 470 C-340.33379426 470.00227832 -339.66758852 470.00455664 -338.98119473 470.00690401 C-299.47451549 470.14124538 -259.96786578 470.24415612 -220.46100427 470.30639198 C-215.71472512 470.31389599 -210.96844643 470.32166195 -206.22216797 470.32958984 C-205.27729081 470.33116371 -204.33241365 470.33273757 -203.35890386 470.33435912 C-188.07037026 470.36044922 -172.78197237 470.40774686 -157.49351922 470.46291678 C-141.79985752 470.51907555 -126.10626678 470.55236319 -110.41250873 470.56453097 C-100.73275285 470.57275344 -91.0533806 470.59869948 -81.37374285 470.6474988 C-74.73118375 470.67927592 -68.08882226 470.68878674 -61.44619271 470.68100826 C-57.61668926 470.67717465 -53.78785499 470.68294642 -49.9584713 470.71523285 C-45.79774799 470.75005492 -41.63843685 470.73787576 -37.4776001 470.7215271 C-36.27912359 470.73900415 -35.08064707 470.7564812 -33.84585309 470.77448785 C-24.61701451 470.67675932 -17.04265653 468.15822222 -9.84952188 462.22669542 C-0.24711942 452.28851894 -0.42885018 439.77929945 -0.52571106 426.82797241 C-0.5246817 424.98777838 -0.52188837 423.14758464 -0.51749247 421.30739558 C-0.51051303 416.27174475 -0.52837615 411.2364459 -0.55039656 406.20084977 C-0.56977185 400.76266947 -0.56591008 395.3244993 -0.56486511 389.8862915 C-0.56617672 380.47099231 -0.58200253 371.05580801 -0.60764503 361.64054489 C-0.64461391 348.02667074 -0.65847429 334.41284888 -0.66654237 320.79893048 C-0.68016669 298.70853206 -0.71092056 276.61819303 -0.75317383 254.52783203 C-0.79417563 233.07471287 -0.82959528 211.62159985 -0.85571289 190.16845703 C-0.85652206 189.50682606 -0.85733123 188.84519508 -0.85816491 188.16351469 C-0.87659574 173.06636636 -0.89325114 157.96921643 -0.90852642 142.87206459 C-0.90981425 141.60548624 -0.91110208 140.33890788 -0.91242894 139.03394837 C-0.92302283 128.60638666 -0.92302283 128.60638666 -0.92769953 123.84854253 C-0.94236648 109.00923084 -0.96203106 94.16994425 -0.9905025 79.33065231 C-1.00830015 70.03359448 -1.02307706 60.73653554 -1.03544859 51.43946891 C-1.04419692 45.03196085 -1.05709315 38.62447958 -1.07317548 32.21698596 C-1.08185628 28.34510605 -1.08643511 24.47322992 -1.08974978 20.60134204 C-1.09212097 18.81767775 -1.09622886 17.03401484 -1.10216806 15.25035886 C-1.10996748 12.84236339 -1.11173109 10.43444016 -1.11187458 8.02643394 C-1.11564498 7.3198759 -1.11941539 6.61331787 -1.12330005 5.88534898 C-1.11412782 1.11412782 -1.11412782 1.11412782 0 0 Z " fill="#5BB3EC" transform="translate(427,21)"/>
<path d="M0 0 C0.09270102 12.54354141 0.16376579 25.08700124 0.20724869 37.63081551 C0.22811886 43.45549753 0.25642663 49.2799451 0.30175781 55.10449219 C0.3452351 60.72604551 0.3691414 66.34737339 0.37950897 71.96908188 C0.38689689 74.11329573 0.40132377 76.25749732 0.42292023 78.40161514 C0.45197867 81.40619777 0.45595491 84.40985012 0.45410156 87.41455078 C0.46848267 88.30000076 0.48286377 89.18545074 0.49768066 90.09773254 C0.46139979 95.53737161 -0.26130809 98.76323876 -4 103 C-8.41122227 106.78921519 -12.94093158 106.40767774 -18.47192383 106.34057617 C-19.41875031 106.34101425 -20.36557678 106.34145233 -21.34109497 106.34190369 C-24.46328521 106.33981762 -27.58493508 106.31649481 -30.70703125 106.29296875 C-32.87464606 106.28737216 -35.04226468 106.28310236 -37.20988464 106.28010559 C-42.90964266 106.26866186 -48.60917064 106.2391985 -54.30883789 106.20599365 C-60.12708423 106.17528275 -65.94536781 106.16159806 -71.76367188 106.14648438 C-83.17588221 106.11432854 -94.58792196 106.06313769 -106 106 C-105.58196894 94.71316151 -98.78111822 87.17853879 -91.07373047 79.52441406 C-89.91627068 78.35162148 -89.91627068 78.35162148 -88.73542786 77.15513611 C-86.20617917 74.59830665 -83.6625713 72.05638478 -81.1171875 69.515625 C-79.3380335 67.72868609 -77.55932376 65.94130475 -75.78103638 64.15350342 C-72.06067422 60.41826264 -68.33283075 56.69064276 -64.59960938 52.96826172 C-60.307047 48.68777421 -56.03316493 44.38926326 -51.76798904 40.08150125 C-47.63594111 35.90974751 -43.48709105 31.75505002 -39.33163834 27.60662079 C-37.57840405 25.85236512 -35.82984358 24.09342456 -34.08623886 22.32959747 C-11.98143868 0 -11.98143868 0 0 0 Z " fill="#E1F1FE" transform="translate(173,0)"/>
<path d="M0 0 C9.14874918 6.68185432 16.0214111 14.53930593 18.953125 25.765625 C20.65855716 37.85194855 19.39208994 49.21483812 12 59.1875 C3.73727377 68.90938852 -5.288651 74.16480095 -18.0234375 75.5703125 C-28.81214244 76.09403604 -39.4829197 72.27834955 -47.6875 65.3125 C-55.65358671 57.6850526 -60.71153989 49.23376885 -60.98022461 38.11889648 C-61.09808628 24.00023297 -57.7642441 15.04572823 -48.1015625 4.59765625 C-35.44890583 -7.53037807 -14.64766112 -9.23658356 0 0 Z " fill="#D8EEFD" transform="translate(266.6875,102.6875)"/>
<path d="M0 0 C0.90425217 -0.00571014 1.80850433 -0.01142029 2.74015808 -0.01730347 C3.73499207 -0.01842133 4.72982605 -0.01953918 5.75480652 -0.02069092 C7.32327583 -0.02813828 7.32327583 -0.02813828 8.9234314 -0.03573608 C12.39481761 -0.05038328 15.86615811 -0.05716412 19.33757019 -0.06268311 C21.7441203 -0.06843263 24.15067039 -0.07419038 26.55722046 -0.07995605 C31.60876174 -0.09047345 36.66028707 -0.09631122 41.71183777 -0.09979248 C48.1885346 -0.10527751 54.66502122 -0.12930281 61.14165211 -0.15776443 C66.11473203 -0.17637774 71.08776121 -0.18159573 76.06087303 -0.18312836 C78.44871354 -0.18615856 80.83655309 -0.19419941 83.22435951 -0.20731354 C86.56409871 -0.22434569 89.9033229 -0.22250042 93.24308777 -0.21600342 C94.23184906 -0.2252182 95.22061035 -0.23443298 96.23933411 -0.243927 C101.17459586 -0.21381319 104.7513468 -0.18825946 108.69303894 3.14044189 C111.99336043 8.09092413 111.10332562 13.69783779 111.13053894 19.51544189 C111.16341003 20.74778564 111.19628113 21.98012939 111.23014832 23.24981689 C111.29047329 33.36247658 111.29047329 33.36247658 108.29069519 36.42950439 C104.96278349 38.62142218 103.31804656 39.26654232 99.39280701 39.29434204 C98.49 39.3029425 97.58719299 39.31154297 96.6570282 39.32040405 C95.66376526 39.324664 94.67050232 39.32892395 93.6471405 39.33331299 C92.08108063 39.34557922 92.08108063 39.34557922 90.48338318 39.35809326 C87.01681599 39.38297339 83.55028982 39.39947012 80.08366394 39.41387939 C78.90147026 39.41920307 77.71927658 39.42452675 76.50125885 39.43001175 C70.24390307 39.45675483 63.98656733 39.47612597 57.72917175 39.49053955 C51.26139955 39.50718918 44.79413672 39.55196704 38.32655716 39.602911 C33.35772609 39.63654574 28.38901646 39.64811293 23.42008209 39.65376663 C21.03583128 39.6604896 18.65158874 39.67573856 16.26744843 39.69965744 C12.93004709 39.73122906 9.59402659 39.7313571 6.2565155 39.72393799 C5.27134949 39.74034332 4.28618347 39.75674866 3.27116394 39.77365112 C-1.17768142 39.73316519 -4.33313086 39.61270515 -7.90467834 36.79147339 C-12.50003887 31.72027782 -11.59749953 25.83531865 -11.68196106 19.32794189 C-11.71934387 18.24706299 -11.75672668 17.16618408 -11.79524231 16.05255127 C-11.89400643 7.11439807 -11.89400643 7.11439807 -8.90852356 3.44122314 C-5.63583211 0.54690593 -4.23589745 0.01598846 0 0 Z " fill="#47A3E0" transform="translate(186.3069610595703,342.85955810546875)"/>
<path d="M0 0 C1.17410683 -0.01336143 1.17410683 -0.01336143 2.37193298 -0.0269928 C4.95128527 -0.04824933 7.52813166 -0.02598593 10.10742188 -0.0012207 C11.90434016 -0.00272351 13.70125777 -0.00615448 15.49816895 -0.01142883 C19.26099312 -0.01575844 23.02295974 0.00106315 26.78564453 0.03320312 C31.60471868 0.07298478 36.42218497 0.06368366 41.24131012 0.03896809 C44.95091898 0.02477395 48.66015334 0.03488036 52.36973572 0.0524807 C54.14630743 0.05832378 55.92291756 0.05703805 57.69947815 0.04845619 C60.18463057 0.04044908 62.66744049 0.06474204 65.15234375 0.09765625 C65.88392197 0.08910614 66.61550018 0.08055603 67.36924744 0.07174683 C71.26166679 0.1605686 72.95003352 0.65995579 76.03196716 3.11650085 C78.50975661 6.32130138 78.70779063 7.96473386 78.70507812 11.97924805 C78.70701172 13.15874023 78.70894531 14.33823242 78.7109375 15.5534668 C78.68708984 16.77678711 78.66324219 18.00010742 78.63867188 19.26049805 C78.64962891 20.48381836 78.66058594 21.70713867 78.671875 22.9675293 C78.58797655 33.20314027 78.58797655 33.20314027 74.07617188 37.76049805 C70.56623084 38.93047839 67.3986329 38.91581011 63.74658203 38.92163086 C63.00315048 38.92659576 62.25971893 38.93156067 61.49375916 38.93667603 C59.03424148 38.95128159 56.57478829 38.95809675 54.11523438 38.96362305 C52.40514118 38.96937556 50.695048 38.97513329 48.98495483 38.980896 C45.398821 38.99140123 41.81270956 38.99724711 38.2265625 39.00073242 C33.63426264 39.00621795 29.04225916 39.03024913 24.45005226 39.05870438 C20.91727842 39.07733895 17.38457588 39.08253678 13.85175705 39.0840683 C12.15889235 39.08709321 10.46602886 39.09511633 8.77321243 39.10825348 C6.40342981 39.12533235 4.03437019 39.12342958 1.66455078 39.11694336 C0.61857475 39.13076553 0.61857475 39.13076553 -0.4485321 39.14486694 C-4.77132056 39.10785396 -7.48753082 38.41010559 -10.92382812 35.76049805 C-13.83730792 30.46812698 -13.32959339 24.70802912 -13.36132812 18.82299805 C-13.39419922 17.75114258 -13.42707031 16.67928711 -13.4609375 15.57495117 C-13.46802734 14.5340332 -13.47511719 13.49311523 -13.48242188 12.4206543 C-13.49587646 11.47843018 -13.50933105 10.53620605 -13.52319336 9.56542969 C-11.88877035 1.91659631 -7.23290002 -0.13561034 0 0 Z " fill="#46A2E0" transform="translate(187.923828125,285.239501953125)"/>
<path d="M0 0 C0.75289307 -0.0049649 1.50578613 -0.00992981 2.28149414 -0.01504517 C4.7843516 -0.02970724 7.28714562 -0.03647659 9.79003906 -0.04199219 C11.525411 -0.04774172 13.2607829 -0.05349948 14.99615479 -0.05926514 C18.64131975 -0.0697876 22.28646259 -0.07562163 25.93164062 -0.07910156 C30.60022451 -0.08457922 35.26851569 -0.10858627 39.9370079 -0.13707352 C43.52468718 -0.15571124 47.11229624 -0.16090617 50.70001984 -0.16243744 C52.42079513 -0.16546356 54.14156921 -0.17349072 55.86229706 -0.18662262 C58.27300625 -0.20370187 60.68300464 -0.20179815 63.09375 -0.1953125 C64.15846527 -0.20913467 64.15846527 -0.20913467 65.24468994 -0.22323608 C69.60708281 -0.18652209 72.34669999 0.47334503 75.80566406 3.16113281 C79.10746604 8.11383579 78.2572556 13.71501508 78.30566406 19.53613281 C78.34691406 20.76847656 78.38816406 22.00082031 78.43066406 23.27050781 C78.44613281 25.05328125 78.44613281 25.05328125 78.46191406 26.87207031 C78.48995117 28.50088135 78.48995117 28.50088135 78.51855469 30.16259766 C77.6965029 33.62028261 76.35517718 34.93961761 73.59964943 37.11135101 C70.53540798 38.90444529 67.39423849 38.84898173 63.9519043 38.79223633 C63.18852753 38.79939163 62.42515076 38.80654694 61.63864136 38.81391907 C59.12989396 38.83074837 56.62294809 38.81144113 54.11425781 38.79003906 C52.36361036 38.79086822 50.61296298 38.79332935 48.86231995 38.79734802 C45.19972196 38.80020194 41.5377369 38.78554344 37.87524414 38.75805664 C33.18528597 38.72394896 28.49642157 38.73000411 23.80641079 38.74871922 C20.19378065 38.75929651 16.58140424 38.75034524 12.96879768 38.7353344 C11.23967302 38.73015916 9.51052179 38.7306264 7.78140068 38.73687935 C5.3636987 38.74234157 2.94755373 38.72192735 0.5300293 38.69458008 C-0.1812764 38.70110596 -0.89258209 38.70763184 -1.6254425 38.71435547 C-6.39425475 38.6228203 -8.88244391 37.59155576 -12.19433594 34.16113281 C-13.85721144 29.17250632 -13.50462472 24.01009285 -13.56933594 18.78613281 C-13.60671875 17.64917969 -13.64410156 16.51222656 -13.68261719 15.34082031 C-13.76931252 7.13366173 -13.76931252 7.13366173 -12.08984375 4.29296875 C-10.73339844 2.93457031 -10.73339844 2.93457031 -8.19433594 1.16113281 C-6.26372039 -0.76948273 -2.63252033 0.00409912 0 0 Z " fill="#45A2E0" transform="translate(188.1943359375,400.8388671875)"/>
<path d="M0 0 C0.7437236 -0.0087616 1.4874472 -0.01752319 2.25370789 -0.02655029 C4.7029418 -0.0484899 7.15035833 -0.03401275 9.59960938 -0.01708984 C11.30684759 -0.02045959 13.01408346 -0.02531353 14.72131348 -0.03158569 C18.29572436 -0.03894959 21.86950962 -0.02826763 25.44384766 -0.00488281 C30.02077278 0.02360533 34.59623197 0.00719867 39.17310333 -0.02274513 C42.6973979 -0.04083156 46.22134612 -0.03505406 49.74565125 -0.02210617 C51.43291905 -0.01877584 53.12021852 -0.02284615 54.80744934 -0.03450394 C57.16805029 -0.04723572 59.52629306 -0.02780751 61.88671875 0 C62.58089401 -0.01012115 63.27506927 -0.02024231 63.99028015 -0.03067017 C67.79795007 0.05223593 69.36845275 0.58682428 72.37620544 3.00198364 C74.88156881 6.20767553 75.07498888 7.83530267 75.07226562 11.86572266 C75.07419922 13.04521484 75.07613281 14.22470703 75.078125 15.43994141 C75.05427734 16.66326172 75.03042969 17.88658203 75.00585938 19.14697266 C75.01681641 20.37029297 75.02777344 21.59361328 75.0390625 22.85400391 C74.95516405 33.08961488 74.95516405 33.08961488 70.44335938 37.64697266 C66.92506497 38.81973746 64.10320796 38.80289913 60.38916016 38.83984375 C59.67498932 38.84802124 58.96081848 38.85619873 58.2250061 38.86462402 C55.86290316 38.88942591 53.50086001 38.90597889 51.13867188 38.92041016 C49.92754541 38.92839567 49.92754541 38.92839567 48.69195175 38.93654251 C44.41980693 38.96324904 40.1476911 38.98263353 35.87548828 38.99707031 C32.34072048 39.01042073 28.80652845 39.03829625 25.27197266 39.07910156 C21.00203107 39.12839442 16.7326125 39.15318667 12.46239853 39.16029739 C10.83647831 39.16701213 9.21056987 39.18224016 7.58481216 39.2061882 C5.30803821 39.23781775 3.03328372 39.23788142 0.75634766 39.23046875 C-1.18532791 39.24259903 -1.18532791 39.24259903 -3.16622925 39.25497437 C-7.42349201 38.49152039 -8.86714712 36.95357104 -11.55664062 33.64697266 C-13.72244089 29.31537212 -12.87545668 23.59223121 -12.93164062 18.83447266 C-12.96902344 17.6453125 -13.00640625 16.45615234 -13.04492188 15.23095703 C-13.05652344 14.08304687 -13.068125 12.93513672 -13.08007812 11.75244141 C-13.09989746 10.70209717 -13.1197168 9.65175293 -13.14013672 8.56958008 C-11.71927008 1.45276228 -6.51805498 -0.09503399 0 0 Z " fill="#48A4E1" transform="translate(300.556640625,285.35302734375)"/>
<path d="M0 0 C0.71402481 -0.0049649 1.42804962 -0.00992981 2.16371155 -0.01504517 C4.53126991 -0.02967696 6.89876123 -0.03647097 9.26635742 -0.04199219 C10.91061912 -0.04774345 12.5548808 -0.05350119 14.19914246 -0.05926514 C17.65001742 -0.06977846 21.10086908 -0.07561874 24.55175781 -0.07910156 C28.97033634 -0.08458254 33.38860612 -0.1086005 37.8070879 -0.13707352 C41.20518386 -0.15571352 44.60320573 -0.16090625 48.0013485 -0.16243744 C49.63001885 -0.16546217 51.25868795 -0.17348468 52.88730812 -0.18662262 C55.16859909 -0.20370961 57.44913945 -0.20179659 59.73046875 -0.1953125 C61.67666862 -0.20078094 61.67666862 -0.20078094 63.66218567 -0.20635986 C67.32017687 0.18935087 69.16273626 0.93520526 72.05932617 3.16113281 C75.29178862 8.00982648 74.42816451 13.33659109 74.43432617 19.03613281 C74.45881836 20.22078125 74.48331055 21.40542969 74.50854492 22.62597656 C74.51241211 23.769375 74.5162793 24.91277344 74.52026367 26.09082031 C74.52848145 27.1347998 74.53669922 28.1787793 74.54516602 29.25439453 C73.93939839 32.87865047 72.57850292 34.53750382 70.05932617 37.16113281 C67.07636694 38.65261243 64.35465909 38.31318163 61.02685547 38.33813477 C60.30307709 38.34470596 59.57929871 38.35127716 58.83358765 38.35804749 C56.43357239 38.37779012 54.03361974 38.38944531 51.63354492 38.39941406 C50.81417765 38.40348959 49.99481037 38.40756512 49.15061378 38.41176414 C44.81362789 38.43262924 40.47667368 38.4469289 36.13964844 38.45629883 C31.66044675 38.46736285 27.18174192 38.50176102 22.70271587 38.54147053 C19.25829649 38.56761942 15.81399577 38.57598912 12.36948586 38.57958031 C10.71846983 38.58445096 9.06745926 38.59607863 7.41654015 38.6146183 C5.10395356 38.63897355 2.79265611 38.63805199 0.47998047 38.63110352 C-1.49286674 38.63990288 -1.49286674 38.63990288 -3.50556946 38.64888 C-7.5083713 38.08052599 -9.14591768 37.03501287 -11.94067383 34.16113281 C-13.60277931 29.17481636 -13.20907581 24.00733852 -13.25317383 18.78613281 C-13.28217773 17.64917969 -13.31118164 16.51222656 -13.34106445 15.34082031 C-13.40506343 6.95203139 -13.40506343 6.95203139 -11.04614258 2.93457031 C-7.31674225 -0.20670566 -4.83617715 0.0254976 0 0 Z " fill="#45A2E0" transform="translate(300.940673828125,400.8388671875)"/>
<path d="M0 0 C8.30422511 6.61725933 8.30422511 6.61725933 10.85546875 10.6875 C10.73046875 13.3125 10.73046875 13.3125 9.85546875 15.6875 C1.8840902 21.00175237 -10.95783518 18.83486704 -20.29296875 18.8203125 C-21.83794164 18.8209882 -23.38291443 18.82196044 -24.92788696 18.82321167 C-28.15017723 18.824677 -31.37243957 18.82257244 -34.59472656 18.81787109 C-38.68817567 18.8121842 -42.78155903 18.81545371 -46.87500572 18.82144356 C-50.06151813 18.82508907 -53.24801544 18.82389227 -56.43452835 18.82131577 C-57.94213494 18.82065698 -59.44974298 18.82143744 -60.95734787 18.82379532 C-68.09350761 18.83250833 -75.22902184 18.77219514 -82.35791016 18.42919922 C-83.85857529 18.36138748 -83.85857529 18.36138748 -85.38955688 18.29220581 C-88.80114249 17.54337647 -90.59354339 16.01815392 -93.14453125 13.6875 C-92.59434796 7.6246959 -88.67722041 4.92332384 -84.30859375 1.1875 C-59.87763467 -18.62219941 -25.01561946 -18.39657978 0 0 Z " fill="#D8EEFD" transform="translate(287.14453125,196.3125)"/>
<path d="M0 0 C0.91517395 -0.00807175 1.8303479 -0.01614349 2.77325439 -0.02445984 C4.7134003 -0.03830504 6.65357061 -0.04902524 8.59375 -0.05688477 C11.55255748 -0.07407025 14.51023967 -0.11794882 17.46875 -0.16210938 C19.35415845 -0.17223876 21.23957641 -0.1807541 23.125 -0.1875 C24.00645691 -0.20500809 24.88791382 -0.22251617 25.79608154 -0.24055481 C31.43603779 -0.22076967 34.50243725 0.54252715 38.828125 4.23828125 C41.05189764 8.68582653 40.14765662 14.66704215 40.203125 19.55078125 C40.25919922 21.40606445 40.25919922 21.40606445 40.31640625 23.29882812 C40.41542057 33.48080046 40.41542057 33.48080046 37.4296875 36.53125 C30.88781599 40.82373927 22.68690678 39.54173488 15.0625 39.58837891 C13.07995857 39.60492171 11.09747638 39.6321896 9.11523438 39.67041016 C6.25359219 39.72529489 3.3933483 39.74707172 0.53125 39.76171875 C-0.35020691 39.78438812 -1.23166382 39.8070575 -2.13983154 39.83041382 C-6.4164225 39.81579873 -9.29431369 39.60306124 -12.71582031 36.89306641 C-17.3837372 31.8474473 -16.46213835 25.95435461 -16.546875 19.42578125 C-16.58425781 18.34490234 -16.62164062 17.26402344 -16.66015625 16.15039062 C-16.75892037 7.21223742 -16.75892037 7.21223742 -13.7734375 3.5390625 C-9.36167797 -0.36262873 -5.6664116 0.04705437 0 0 Z " fill="#47A3E0" transform="translate(335.171875,342.76171875)"/>
<path d="M0 0 C4.57261494 2.70199974 7.876829 7.25661625 9.890625 12.1171875 C10.87729015 18.86322361 9.90714777 24.56820681 5.890625 30.1171875 C1.5158792 34.82753024 -3.04374209 37.15362223 -9.421875 37.4921875 C-15.57273713 37.33841595 -20.15496457 35.12441983 -24.421875 30.7421875 C-28.29017714 24.72482862 -30.16773636 20.28241559 -29.109375 13.1171875 C-27.17438727 6.43600343 -22.98466779 2.60375756 -17.109375 -0.8828125 C-11.2537885 -2.83467467 -5.63986705 -2.3314411 0 0 Z " fill="#47A3E0" transform="translate(146.109375,344.8828125)"/>
<path d="M0 0 C5.00341172 2.23862016 8.01597377 5.56155248 10.60546875 10.3515625 C12.43058768 15.8269193 12.43263947 21.22868313 10.04296875 26.5390625 C7.50462391 31.05569033 3.70835696 35.31515992 -1.3125 36.9921875 C-6.70560851 37.92308053 -12.2500573 38.34636671 -17.20703125 35.7265625 C-22.43899661 31.82823537 -25.95112801 27.9124863 -27.39453125 21.3515625 C-28.06712022 15.3943459 -27.30708231 12.1129968 -23.8984375 7.1796875 C-17.46702719 -0.63823465 -9.85458814 -2.66861604 0 0 Z " fill="#46A2E0" transform="translate(144.39453125,401.6484375)"/>
<path d="M0 0 C5.81553007 2.0090013 9.45699651 5.65889126 12.8125 10.75 C14.8928123 16.4434863 14.91408591 21.60450677 12.4375 27.1875 C9.80916834 31.8977718 5.82424399 35.58787801 1 38 C-6.44945919 38.6895554 -11.998915 38.65390266 -18 34 C-22.70186844 29.5244247 -24.66311141 25.03199728 -25.375 18.625 C-24.71115972 12.20787729 -22.22572331 7.79549028 -17.375 3.5625 C-11.90074512 -0.82407542 -6.87296261 -0.49542981 0 0 Z " fill="#46A2E0" transform="translate(142,286)"/>
</svg>
